# xmcd
#
# Track frame offsets:
#	150
#	13945
#	34292
#	57093
#	71000
#	87812
#	107085
#	126291
#	142051
#	167466
#	179968
#	192716
#	215146
#
# Disc length: 3101 seconds
#
# Revision: 2
# Processed by: cddbd v1.5.2PL0 Copyright (c) Steve Scherf et al.
# Submitted via: audiograbber 1.83.01
#
DISCID=ce0c1b0d
DTITLE=Dota die Kleingeldprinzessin - Immer Nur Rosinen
DYEAR=2006
DGENRE=Ballad
TTITLE0=Ö.N
TTITLE1=Schatten werfen
TTITLE2=Mond
TTITLE3=Zimmer
TTITLE4=Der Kanal
TTITLE5=Menschenklone
TTITLE6=Mittenzwischendrin
TTITLE7=Spiegelschrift
TTITLE8=Die Funktionalisierer
TTITLE9=Noch so einer
TTITLE10=Der Fluch des Schlaraffenlands
TTITLE11=Mond-Akustikversion
TTITLE12=Hinter den Lidern
EXTD=
EXTT0=
EXTT1=
EXTT2=
EXTT3=
EXTT4=
EXTT5=
EXTT6=
EXTT7=
EXTT8=
EXTT9=
EXTT10=
EXTT11=
EXTT12=
PLAYORDER=
